<svg xmlns="http://www.w3.org/2000/svg" viewBox="0 0 2830.1 2921.8"><defs><style>.cls-1{fill:#DE3C4B;}</style></defs><g id="Layer_1" data-name="Layer 1"><path class="cls-1" d="M1493.66,2962c-197.21,0-388.53-38.63-568.65-114.81a1465.18,1465.18,0,0,1-777.44-777.44c-76.18-180.11-114.8-371.43-114.8-568.65s38.62-388.54,114.8-568.65A1465.18,1465.18,0,0,1,925,155C1105.13,78.83,1296.45,40.2,1493.66,40.2a1462.6,1462.6,0,0,1,1364,936.61l5.23,13.59h-371.3l-2.8-5.39a1119,1119,0,0,0-995.1-604.66c-151.3,0-298.08,29.63-436.24,88.07A1124,1124,0,0,0,461,1064.86C402.54,1203,372.91,1349.8,372.91,1501.1s29.63,298.08,88.07,436.25a1124.07,1124.07,0,0,0,596.44,596.44c138.16,58.44,284.94,88.07,436.24,88.07a1120.61,1120.61,0,0,0,995.1-604.67l2.8-5.39h371.3l-5.23,13.59a1459.23,1459.23,0,0,1-1364,936.61Z" transform="translate(-32.77 -40.2)"/></g><g id="Layer_3" data-name="Layer 3"><rect class="cls-1" x="2155.12" y="454.54" width="351.02" height="1736.87"/><rect class="cls-1" x="1410.43" y="308.45" width="351.02" height="2412.94" transform="translate(-628.77 1252.64) rotate(-37.88)"/><rect class="cls-1" x="535.23" y="453.44" width="351.02" height="2012.72"/></g></svg>